<svg width="24" height="24" viewBox="0 0 24 24" fill="none" xmlns="http://www.w3.org/2000/svg">
<path fill-rule="evenodd" clip-rule="evenodd" d="M15.3093 21.0298C15.2093 21.7098 14.5893 22.2498 13.8493 22.2498H10.1493C9.40926 22.2498 8.78926 21.7098 8.69926 20.9798L8.42926 19.0898C8.15926 18.9498 7.89926 18.7998 7.63926 18.6298L5.83926 19.3498C5.13926 19.6098 4.36926 19.3198 4.02926 18.6998L2.19926 15.5298C1.84926 14.8698 1.99926 14.0898 2.55926 13.6498L4.08926 12.4598C4.07926 12.3098 4.06926 12.1598 4.06926 11.9998C4.06926 11.8498 4.07926 11.6898 4.08926 11.5398L2.56926 10.3498C1.97926 9.89977 1.82926 9.08977 2.19926 8.46977L4.04926 5.27977C4.38926 4.65977 5.15926 4.37977 5.83926 4.64977L7.64926 5.37977C7.90926 5.20977 8.16926 5.05977 8.42926 4.91977L8.69926 3.00977C8.78926 2.30977 9.40926 1.75977 10.1393 1.75977H13.8393C14.5793 1.75977 15.1993 2.29977 15.2893 3.02977L15.5593 4.91977C15.8293 5.05977 16.0893 5.20977 16.3493 5.37977L18.1493 4.65977C18.8593 4.39977 19.6293 4.68977 19.9693 5.30977L21.8093 8.48977C22.1693 9.14977 22.0093 9.92977 21.4493 10.3698L19.9293 11.5598C19.9393 11.7098 19.9493 11.8598 19.9493 12.0198C19.9493 12.1798 19.9393 12.3298 19.9293 12.4798L21.4493 13.6698C22.0093 14.1198 22.1693 14.8998 21.8193 15.5298L19.9593 18.7498C19.6193 19.3698 18.8493 19.6498 18.1593 19.3798L16.3593 18.6598C16.0993 18.8298 15.8393 18.9798 15.5793 19.1198L15.3093 21.0298ZM10.6193 20.2498H13.3793L13.7493 17.6998L14.2793 17.4798C14.7193 17.2998 15.1593 17.0398 15.6193 16.6998L16.0693 16.3598L18.4493 17.3198L19.8293 14.9198L17.7993 13.3398L17.8693 12.7798L17.8724 12.7528C17.9013 12.5025 17.9293 12.2604 17.9293 11.9998C17.9293 11.7298 17.8993 11.4698 17.8693 11.2198L17.7993 10.6598L19.8293 9.07977L18.4393 6.67977L16.0493 7.63977L15.5993 7.28977C15.1793 6.96977 14.7293 6.70977 14.2693 6.51977L13.7493 6.29977L13.3793 3.74977H10.6193L10.2493 6.29977L9.71926 6.50977C9.27926 6.69977 8.83926 6.94977 8.37926 7.29977L7.92926 7.62977L5.54926 6.67977L4.15926 9.06977L6.18926 10.6498L6.11926 11.2098C6.08926 11.4698 6.05926 11.7398 6.05926 11.9998C6.05926 12.2598 6.07926 12.5298 6.11926 12.7798L6.18926 13.3398L4.15926 14.9198L5.53926 17.3198L7.92926 16.3598L8.37926 16.7098C8.80926 17.0398 9.23926 17.2898 9.70926 17.4798L10.2393 17.6998L10.6193 20.2498ZM15.4993 11.9998C15.4993 13.9328 13.9323 15.4998 11.9993 15.4998C10.0663 15.4998 8.49926 13.9328 8.49926 11.9998C8.49926 10.0668 10.0663 8.49977 11.9993 8.49977C13.9323 8.49977 15.4993 10.0668 15.4993 11.9998Z" fill="#1D192B"/>
</svg>
